<svg width="1597" height="2128" viewBox="0 0 1597 2128" fill="none" xmlns="http://www.w3.org/2000/svg">
<path d="M643.321 71.0546C653.75 78.8219 681.322 85.9079 708.176 52.1139C741.744 9.87145 761.603 10.8045 778.596 18.6948C792.191 25.0071 806.869 23.2911 812.509 21.6441" stroke="#FF9900" stroke-width="2"/>
<g opacity="0.8">
<circle cx="97" cy="604" r="40" fill="#FF9900"/>
<circle cx="108" cy="612" r="39" stroke="black" stroke-width="2"/>
</g>
<g opacity="0.8">
<circle cx="1304" cy="1435" r="40" fill="#FF9900"/>
<circle cx="1315" cy="1443" r="39" stroke="black" stroke-width="2"/>
</g>
<path d="M1436.81 611.752C1436.01 607.988 1439.58 604.765 1443.24 605.95L1535.52 635.826C1539.18 637.011 1540.19 641.716 1537.33 644.295L1465.32 709.273C1462.46 711.852 1457.88 710.37 1457.08 706.606L1436.81 611.752Z" fill="#1EB3A6"/>
<path d="M1466.56 601.743L1558.84 631.618C1561.77 632.567 1562.58 636.331 1560.29 638.394L1488.28 703.372C1485.99 705.435 1482.33 704.249 1481.69 701.238L1461.42 606.384C1460.78 603.373 1463.63 600.794 1466.56 601.743Z" stroke="black" stroke-width="2"/>
<path d="M812.321 1016.05C822.75 1023.82 850.322 1030.91 877.176 997.114C910.744 954.871 930.603 955.805 947.596 963.695C961.191 970.007 975.869 968.291 981.509 966.644" stroke="#1EB3A6" stroke-width="2"/>
<path d="M154.321 1390.05C164.75 1397.82 192.322 1404.91 219.176 1371.11C252.744 1328.87 272.603 1329.8 289.596 1337.69C303.191 1344.01 317.869 1342.29 323.509 1340.64" stroke="#FF9900" stroke-width="2"/>
<path d="M1361.32 2109.05C1371.75 2116.82 1399.32 2123.91 1426.18 2090.11C1459.74 2047.87 1479.6 2048.8 1496.6 2056.7C1510.19 2063.01 1524.87 2061.29 1530.51 2059.64" stroke="#FF9900" stroke-width="2"/>
<g opacity="0.8">
<rect y="2066.58" width="80" height="80" rx="10" transform="rotate(-46.3586 0 2066.58)" fill="#1EB3A6"/>
<rect x="15.4849" y="2063.38" width="78" height="78" rx="9" transform="rotate(-46.3586 15.4849 2063.38)" stroke="black" stroke-width="2"/>
</g>
</svg>
